<svg width="24" height="24" viewBox="0 0 24 24" fill="none" xmlns="http://www.w3.org/2000/svg">
  <path
    d="M22.08 12.48V22.08C22.08 22.5892 21.8777 23.0776 21.5176 23.4376C21.1576 23.7977 20.6692 24 20.16 24H1.92C1.41078 24 0.922425 23.7977 0.562355 23.4376C0.202285 23.0776 0 22.5892 0 22.08V3.84C0 3.33078 0.202285 2.84242 0.562355 2.48235C0.922425 2.12229 1.41078 1.92 1.92 1.92H11.52C11.7746 1.92 12.0188 2.02114 12.1988 2.20118C12.3789 2.38121 12.48 2.62539 12.48 2.88C12.48 3.13461 12.3789 3.37879 12.1988 3.55882C12.0188 3.73886 11.7746 3.84 11.52 3.84H1.92V22.08H20.16V12.48C20.16 12.2254 20.2611 11.9812 20.4412 11.8012C20.6212 11.6211 20.8654 11.52 21.12 11.52C21.3746 11.52 21.6188 11.6211 21.7988 11.8012C21.9789 11.9812 22.08 12.2254 22.08 12.48ZM19.68 0C18.8256 0 17.9904 0.253364 17.2799 0.728051C16.5695 1.20274 16.0158 1.87743 15.6888 2.66681C15.3619 3.45618 15.2763 4.32479 15.443 5.16279C15.6097 6.00079 16.0211 6.77054 16.6253 7.3747C17.2295 7.97886 17.9992 8.3903 18.8372 8.55699C19.6752 8.72368 20.5438 8.63813 21.3332 8.31116C22.1226 7.98419 22.7973 7.43048 23.2719 6.72006C23.7466 6.00964 24 5.17441 24 4.32C24 3.17426 23.5449 2.07546 22.7347 1.2653C21.9245 0.455141 20.8257 0 19.68 0Z"
    fill="#F44336" />
</svg>
