<svg width="24" height="24" viewBox="0 0 24 24" fill="none" xmlns="http://www.w3.org/2000/svg">
  <path
    d="M22.0408 12.4898V22.2857C22.0408 22.7404 21.8602 23.1764 21.5387 23.4979C21.2172 23.8194 20.7812 24 20.3265 24H1.71429C1.25963 24 0.823594 23.8194 0.502103 23.4979C0.180612 23.1764 0 22.7404 0 22.2857V3.67347C0 3.21881 0.180612 2.78278 0.502103 2.46129C0.823594 2.1398 1.25963 1.95918 1.71429 1.95918H11.5102C11.7051 1.95918 11.8919 2.03659 12.0297 2.17437C12.1675 2.31215 12.2449 2.49902 12.2449 2.69388C12.2449 2.88873 12.1675 3.0756 12.0297 3.21338C11.8919 3.35117 11.7051 3.42857 11.5102 3.42857H1.71429C1.64933 3.42857 1.58704 3.45437 1.54112 3.5003C1.49519 3.54623 1.46939 3.60852 1.46939 3.67347V22.2857C1.46939 22.3507 1.49519 22.413 1.54112 22.4589C1.58704 22.5048 1.64933 22.5306 1.71429 22.5306H20.3265C20.3915 22.5306 20.4538 22.5048 20.4997 22.4589C20.5456 22.413 20.5714 22.3507 20.5714 22.2857V12.4898C20.5714 12.2949 20.6488 12.1081 20.7866 11.9703C20.9244 11.8325 21.1113 11.7551 21.3061 11.7551C21.501 11.7551 21.6878 11.8325 21.8256 11.9703C21.9634 12.1081 22.0408 12.2949 22.0408 12.4898ZM24 4.16327C24 4.98668 23.7558 5.79161 23.2984 6.47625C22.8409 7.1609 22.1907 7.69451 21.4299 8.00962C20.6692 8.32473 19.8321 8.40718 19.0245 8.24654C18.2169 8.08589 17.4751 7.68938 16.8929 7.10714C16.3106 6.5249 15.9141 5.78307 15.7535 4.97548C15.5928 4.16788 15.6753 3.33079 15.9904 2.57005C16.3055 1.80932 16.8391 1.1591 17.5237 0.701637C18.2084 0.244171 19.0133 0 19.8367 0C20.9399 0.0032304 21.997 0.442896 22.777 1.22296C23.5571 2.00303 23.9968 3.06009 24 4.16327ZM22.5306 4.16327C22.5306 3.63047 22.3726 3.10963 22.0766 2.66663C21.7806 2.22362 21.3599 1.87834 20.8676 1.67445C20.3754 1.47055 19.8337 1.41721 19.3112 1.52115C18.7886 1.62509 18.3086 1.88166 17.9319 2.25841C17.5551 2.63515 17.2986 3.11515 17.1946 3.63772C17.0907 4.16028 17.144 4.70193 17.3479 5.19417C17.5518 5.68641 17.8971 6.10714 18.3401 6.40314C18.7831 6.69915 19.3039 6.85714 19.8367 6.85714C20.5502 6.85392 21.2335 6.56907 21.738 6.06457C22.2425 5.56006 22.5274 4.87673 22.5306 4.16327V4.16327Z"
    fill="black" />
</svg>
