<svg width="18" height="18" viewBox="0 0 18 18" fill="none" xmlns="http://www.w3.org/2000/svg">
  <path fill-rule="evenodd" clip-rule="evenodd"
    d="M12.973 0.000189304C11.6602 -0.0112178 10.3956 0.493422 9.4513 1.40542L9.44097 1.41554L8.06269 2.78581C7.67103 3.17519 7.66918 3.80836 8.05857 4.20002C8.44795 4.59168 9.08111 4.59352 9.47277 4.20414L10.8456 2.83934C11.4121 2.2946 12.1695 1.99328 12.9556 2.00011C13.7439 2.00696 14.498 2.32317 15.0555 2.88062C15.6129 3.43807 15.9291 4.19217 15.936 4.9805C15.9428 5.76614 15.6418 6.52313 15.0977 7.08956L12.7003 9.48695L12.7002 9.48708C12.3954 9.79199 12.0286 10.0278 11.6246 10.1785C11.2207 10.3292 10.789 10.3912 10.359 10.3604C9.92897 10.3296 9.51059 10.2067 9.13224 9.99997C8.75389 9.79326 8.42442 9.5076 8.16618 9.16236C7.83537 8.72011 7.20868 8.62977 6.76643 8.96058C6.32418 9.29138 6.23384 9.91807 6.56465 10.3603C6.99467 10.9352 7.5433 11.4109 8.17333 11.7551C8.80336 12.0993 9.50004 12.304 10.2161 12.3553C10.9322 12.4066 11.651 12.3033 12.3236 12.0523C12.9962 11.8014 13.607 11.4088 14.1145 10.9012L14.1146 10.901L16.5185 8.49719L16.5307 8.48479C17.4427 7.54053 17.9473 6.27585 17.9359 4.96312C17.9245 3.6504 17.398 2.39468 16.4697 1.46641C15.5414 0.538138 14.2857 0.0115965 12.973 0.000189304ZM7.71996 5.56482C7.00387 5.51353 6.28512 5.61686 5.61247 5.86777C4.93988 6.11867 4.32911 6.51127 3.82158 7.01895L3.82145 7.01908L1.4176 9.42293L1.40542 9.43532C0.493422 10.3796 -0.0112178 11.6443 0.000189304 12.957C0.0115966 14.2697 0.538138 15.5254 1.46641 16.4537C2.39468 17.382 3.6504 17.9085 4.96312 17.9199C6.27585 17.9313 7.54053 17.4267 8.48479 16.5147L8.49719 16.5025L9.86745 15.1322C10.258 14.7417 10.258 14.1086 9.86745 13.718C9.47693 13.3275 8.84376 13.3275 8.45324 13.718L7.08958 15.0817C6.52315 15.6259 5.76615 15.9268 4.9805 15.92C4.19217 15.9131 3.43807 15.5969 2.88062 15.0395C2.32317 14.482 2.00696 13.7279 2.00011 12.9396C1.99329 12.154 2.29425 11.397 2.8384 10.8306L5.23579 8.43316L5.23592 8.43304C5.54072 8.12812 5.90754 7.89233 6.31148 7.74164C6.71543 7.59096 7.14706 7.52891 7.57709 7.55971C8.00712 7.59051 8.4255 7.71343 8.80385 7.92014C9.1822 8.12685 9.51167 8.41251 9.76991 8.75775C10.1007 9.2 10.7274 9.29034 11.1697 8.95954C11.6119 8.62873 11.7023 8.00204 11.3714 7.55979C10.9414 6.9849 10.3928 6.50922 9.76276 6.16501C9.13274 5.8208 8.43605 5.6161 7.71996 5.56482Z"
    fill="#7D7D7D" />
</svg>
