<svg width="28" height="28" viewBox="0 0 28 28" fill="none" xmlns="http://www.w3.org/2000/svg">
  <path
    d="M14 0C11.2311 0 8.52431 0.821086 6.22202 2.35943C3.91973 3.89777 2.12532 6.08427 1.06569 8.64243C0.00606596 11.2006 -0.271181 14.0155 0.269012 16.7313C0.809205 19.447 2.14258 21.9416 4.10051 23.8995C6.05845 25.8574 8.55301 27.1908 11.2687 27.731C13.9845 28.2712 16.7994 27.9939 19.3576 26.9343C21.9157 25.8747 24.1022 24.0803 25.6406 21.778C27.1789 19.4757 28 16.7689 28 14C28 10.287 26.525 6.72601 23.8995 4.1005C21.274 1.475 17.713 0 14 0V0ZM14 26C11.6266 26 9.30655 25.2962 7.33316 23.9776C5.35977 22.6591 3.8217 20.7849 2.91345 18.5922C2.0052 16.3995 1.76756 13.9867 2.23058 11.6589C2.69361 9.33114 3.83649 7.19295 5.51472 5.51472C7.19295 3.83649 9.33115 2.6936 11.6589 2.23058C13.9867 1.76755 16.3995 2.00519 18.5922 2.91345C20.7849 3.8217 22.6591 5.35977 23.9776 7.33316C25.2962 9.30655 26 11.6266 26 14C26 17.1826 24.7357 20.2348 22.4853 22.4853C20.2349 24.7357 17.1826 26 14 26Z"
    fill="#18191A" />
  <path
    d="M14 8C12.8133 8 11.6533 8.35189 10.6666 9.01118C9.67989 9.67047 8.91085 10.6075 8.45673 11.7039C8.0026 12.8003 7.88378 14.0067 8.11529 15.1705C8.3468 16.3344 8.91825 17.4035 9.75736 18.2426C10.5965 19.0818 11.6656 19.6532 12.8295 19.8847C13.9933 20.1162 15.1997 19.9974 16.2961 19.5433C17.3925 19.0892 18.3295 18.3201 18.9888 17.3334C19.6481 16.3467 20 15.1867 20 14C20 12.4087 19.3679 10.8826 18.2426 9.75736C17.1174 8.63214 15.5913 8 14 8Z"
    fill="#18191A" />
</svg>
