<svg width="16" height="16" viewBox="0 0 16 16" fill="none" xmlns="http://www.w3.org/2000/svg">
  <rect width="16" height="16" fill="white" />
  <path
    d="M2.0943 14.369C2.0943 14.369 2.54862 16.126 5.38653 15.6763L5.87139 14.5003L5.0546 13.6063L2.79416 12.8558L2.09554 14.369"
    fill="#0B0B32" />
  <path
    d="M11.1396 11.076C11.1396 11.699 10.8223 11.8628 10.0199 12.204L3.16533 15.1182C3.01821 15.1182 2.87253 15.0891 2.73661 15.0324C2.60068 14.9757 2.47719 14.8925 2.37317 14.7878C2.26915 14.683 2.18664 14.5586 2.13036 14.4217C2.07408 14.2849 2.04513 14.1382 2.04517 13.99V4.2925C2.04517 3.669 2.40912 3.4615 3.16533 3.16425L10.0199 0.25C10.167 0.25 10.3126 0.27918 10.4485 0.335874C10.5844 0.392567 10.7078 0.475663 10.8118 0.580414C10.9158 0.685165 10.9982 0.809519 11.0545 0.946371C11.1107 1.08322 11.1396 1.22989 11.1396 1.378V11.078"
    fill="#474787" />
  <path
    d="M9.85853 0.920056L2.2547 4.13656L2.61121 6.19906L3.74329 6.31231L7.52013 5.70006L9.86871 4.46081L11.5979 2.07656C11.22 1.39406 10.6654 0.971806 9.85853 0.919556"
    fill="#F4F5F5" />
  <path fill-rule="evenodd" clip-rule="evenodd"
    d="M4.36249 4.40148C4.30067 4.52448 4.26939 4.66873 4.26939 4.84998H4.26914V13.5436L4.36248 13.548L5.29124 14.5562C5.29124 14.5562 5.53702 15.6142 5.38682 15.678C5.2739 15.7262 3.78447 15.3156 3.05948 15.1109C2.9256 15.0978 2.79587 15.0606 2.67624 15.0017C2.67102 15.0002 2.66833 14.9995 2.66833 14.9995H2.66808L2.66883 14.9981C2.5613 14.9442 2.46209 14.8728 2.37557 14.7856C2.16552 14.5741 2.04749 14.2872 2.04742 13.988V4.29023C2.04742 3.98523 2.13531 3.78023 2.31307 3.61523C2.84857 4.10148 3.58393 4.32848 4.36249 4.40148Z"
    fill="#2C2C54" />
  <path
    d="M13.5592 12.0318C13.5592 12.6548 13.2421 12.8185 12.439 13.1598L5.38682 15.6773C5.08978 15.6772 4.80493 15.5583 4.59491 15.3468C4.38489 15.1353 4.26691 14.8484 4.26691 14.5493V4.85176C4.26691 4.22801 4.63086 4.02076 5.38682 3.72301L12.439 1.20526C12.5861 1.2052 12.7318 1.23433 12.8678 1.29099C13.0037 1.34766 13.1272 1.43074 13.2312 1.5355C13.3353 1.64026 13.4178 1.76463 13.474 1.90152C13.5303 2.0384 13.5592 2.18511 13.5592 2.33326V12.0333"
    fill="#40407A" />
  <path
    d="M8.79867 6.87253C8.73264 6.56188 8.8287 6.23008 9.06576 5.95011C9.30282 5.67014 9.66146 5.46492 10.0627 5.37963L10.6911 8.33576C10.7571 8.6464 10.6611 8.97821 10.424 9.25818C10.1869 9.53815 9.8283 9.74336 9.42702 9.82866L8.79867 6.87253ZM7.40566 9.0341L6.77732 6.07797C7.1786 5.99267 7.5897 6.03427 7.92014 6.19362C8.25058 6.35297 8.47329 6.61701 8.53932 6.92766L9.16767 9.88379C8.96897 9.92602 8.76573 9.93755 8.56965 9.91771C8.37356 9.89787 8.18846 9.84704 8.02484 9.76814C7.86122 9.68924 7.72243 9.58378 7.61619 9.45783C7.50994 9.33189 7.43836 9.18791 7.40566 9.0341ZM10.8115 8.99701C10.8115 8.99701 11.0416 8.66234 10.9912 8.42529L10.7482 7.28199C10.682 6.97054 10.7783 6.63789 11.0159 6.3572C11.2536 6.07651 11.6132 5.87075 12.0156 5.78524L12.367 7.43855C12.4332 7.75004 12.3369 8.08276 12.0993 8.36353C11.8616 8.6443 11.5021 8.85013 11.0997 8.93575L10.8115 8.99701ZM7.28501 9.74659C6.88261 9.83199 6.4704 9.7902 6.13912 9.63036C5.80783 9.47053 5.58453 9.20576 5.51832 8.89428L5.1669 7.24096C5.56922 7.15545 5.9813 7.19717 6.31259 7.35693C6.64388 7.51668 6.86729 7.78138 6.93349 8.09283L7.17651 9.23612C7.22689 9.47317 7.57321 9.68533 7.57321 9.68533L7.28501 9.74659Z"
    fill="#33C0B4" />
</svg>
