<svg width="540" height="540" viewBox="0 0 18 18" fill="none" xmlns="http://www.w3.org/2000/svg">
  <rect width="18" height="18" fill="white" />
  <path
    d="M15.075 3.44571V0H14.94C12.42 0.128571 10.3275 1.98 9.0675 3.44571L9 3.52286L8.9325 3.44571C7.65 1.98 5.58 0.128571 3.06 0H2.925V3.44571H0V9.38571C0 10.8257 0.045 12.2657 0.135 13.4486C0.21742 14.5895 0.65584 15.6587 1.37035 16.4611C2.08485 17.2635 3.02787 17.7458 4.0275 17.82C5.625 17.9229 7.3125 18 9 18C10.6875 18 12.375 17.9229 13.9725 17.7943C14.9721 17.7201 15.9151 17.2378 16.6297 16.4354C17.3442 15.633 17.7826 14.5638 17.865 13.4229C17.955 12.24 18 10.8 18 9.36V3.44571H15.075ZM15.075 9.38571C15.075 10.7486 15.03 12.0857 14.94 13.1657C14.8725 13.86 14.3775 14.4257 13.77 14.4514C10.594 14.7086 7.40602 14.7086 4.23 14.4514C3.6225 14.4257 3.105 13.86 3.06 13.1657C2.97 12.0857 2.925 10.7229 2.925 9.38571V3.44571C5.04 3.54857 7.155 6.14571 7.785 7.14857L9 9.07714L10.215 7.14857C10.845 6.12 12.96 3.54857 15.075 3.44571V9.38571Z"
    fill="#2ECC71" />
</svg>
