<svg width="196" height="30" viewBox="0 0 196 30" fill="none" xmlns="http://www.w3.org/2000/svg">
  <path
    d="M19.9944 8.68411C19.9944 6.48543 20.8743 4.3768 22.4407 2.8221C24.0072 1.2674 26.132 0.393982 28.3473 0.393982V21.3167C28.3473 23.5154 27.4674 25.624 25.9009 27.1787C24.3344 28.7334 22.2097 29.6068 19.9944 29.6068V8.68411ZM10.2096 21.3167V0.393982C12.425 0.393982 14.5497 1.2674 16.1162 2.8221C17.6827 4.3768 18.5626 6.48543 18.5626 8.68411V29.6068C17.4657 29.6068 16.3792 29.3924 15.3657 28.9758C14.3523 28.5591 13.4316 27.9485 12.656 27.1787C11.8804 26.4089 11.2657 25.495 10.8459 24.4892C10.4261 23.4834 10.2096 22.4054 10.2096 21.3167ZM28.2409 25.9678C28.2409 25.9678 29.8319 24.0327 29.8319 22.3549V14.263C29.8319 12.0586 30.714 9.94459 32.2845 8.38589C33.855 6.82719 35.9856 5.95153 38.2066 5.95153V17.6532C38.2068 19.8579 37.3245 21.9724 35.754 23.5317C34.1836 25.0909 32.0533 25.9672 29.8319 25.9678H28.2409ZM8.77241 25.9678C6.55108 25.967 4.42072 25.0906 2.8503 23.5314C1.27988 21.9722 0.397705 19.8579 0.397705 17.6532V5.95153C2.61874 5.95153 4.74853 6.82719 6.31904 8.38589C7.88955 9.94459 8.77241 12.0586 8.77241 14.263V22.3549C8.77241 24.0327 10.3634 25.9678 10.3634 25.9678H8.77241Z"
    fill="#33C0B4" />
  <path
    d="M50.8973 20.1884L60.1054 8.64148V7.63482H49.0676V8.89808H58.1564L48.9284 20.445V21.4517H60.3441V20.1884H50.8973Z"
    fill="#2E3841" />
  <path
    d="M64.7268 20.1884V15.0565H71.9262V13.8129H64.7268V8.89808H72.8013V7.63482H63.2551V21.4517H73.0996V20.1884H64.7268Z"
    fill="#2E3841" />
  <path
    d="M86.7417 7.63482V18.8462L77.7722 7.63482H76.559V21.4517H78.0307V10.2403L86.9803 21.4517H88.1935V7.63482H86.7417Z"
    fill="#2E3841" />
  <path
    d="M96.5758 21.5701C100.136 21.5701 101.767 19.8332 101.767 17.8001C101.767 12.7668 93.1948 15.0565 93.1948 11.2667C93.1948 9.885 94.3285 8.75991 96.8741 8.75991C98.1072 8.75991 99.4993 9.13494 100.693 9.90473L101.19 8.74017C100.076 7.97037 98.4453 7.51639 96.8741 7.51639C93.3341 7.51639 91.743 9.2731 91.743 11.3062C91.743 16.4184 100.315 14.0893 100.315 17.879C100.315 19.241 99.1811 20.3266 96.5758 20.3266C94.7461 20.3266 92.9761 19.616 91.9817 18.6488L91.4049 19.7739C92.4391 20.8398 94.4876 21.5701 96.5758 21.5701Z"
    fill="#2E3841" />
  <path
    d="M110.582 21.5701C114.142 21.5701 116.289 19.5173 116.289 15.5499V7.63482H114.858V15.4907C114.858 18.7673 113.306 20.2674 110.582 20.2674C107.877 20.2674 106.326 18.7673 106.326 15.4907V7.63482H104.854V15.5499C104.854 19.5173 107.022 21.5701 110.582 21.5701Z"
    fill="#2E3841" />
  <path
    d="M131.842 21.4517L128.441 16.7145C130.469 16.0631 131.623 14.5433 131.623 12.372C131.623 9.41127 129.475 7.63482 125.935 7.63482H120.724V21.4517H122.196V17.0698H125.935C126.333 17.0698 126.691 17.05 127.049 17.0106L130.231 21.4517H131.842ZM125.895 15.8263H122.196V8.89808H125.895C128.679 8.89808 130.151 10.1613 130.151 12.372C130.151 14.5433 128.679 15.8263 125.895 15.8263Z"
    fill="#2E3841" />
  <path
    d="M145.498 21.4517H147.049L140.685 7.63482H139.233L132.869 21.4517H134.4L136.071 17.7606H143.827L145.498 21.4517ZM136.608 16.5763L139.949 9.15468L143.29 16.5763H136.608Z"
    fill="#2E3841" />
  <path
    d="M159.535 7.63482V18.8462L150.565 7.63482H149.352V21.4517H150.824V10.2403L159.773 21.4517H160.987V7.63482H159.535Z"
    fill="#2E3841" />
  <path
    d="M171.576 21.5701C173.625 21.5701 175.455 20.8793 176.688 19.5371L175.753 18.6094C174.619 19.7739 173.227 20.2674 171.636 20.2674C168.275 20.2674 165.749 17.8198 165.749 14.5433C165.749 11.2667 168.275 8.81912 171.636 8.81912C173.227 8.81912 174.619 9.31258 175.753 10.4574L176.688 9.52971C175.455 8.18749 173.625 7.51639 171.596 7.51639C167.4 7.51639 164.297 10.4969 164.297 14.5433C164.297 18.5896 167.4 21.5701 171.576 21.5701Z"
    fill="#2E3841" />
  <path
    d="M181.297 20.1884V15.0565H188.496V13.8129H181.297V8.89808H189.371V7.63482H179.825V21.4517H189.67V20.1884H181.297Z"
    fill="#2E3841" />
</svg>
