<svg width="539" height="530" viewBox="0 0 39 30" fill="none" xmlns="http://www.w3.org/2000/svg">
  <path
    d="M19.9944 8.68405C19.9944 6.48537 20.8743 4.37674 22.4407 2.82204C24.0072 1.26734 26.132 0.393921 28.3473 0.393921V21.3166C28.3473 23.5153 27.4674 25.6239 25.9009 27.1786C24.3344 28.7333 22.2097 29.6068 19.9944 29.6068V8.68405ZM10.2096 21.3166V0.393921C12.425 0.393921 14.5497 1.26734 16.1162 2.82204C17.6827 4.37674 18.5626 6.48537 18.5626 8.68405V29.6068C17.4657 29.6068 16.3792 29.3923 15.3657 28.9757C14.3523 28.5591 13.4316 27.9484 12.656 27.1786C11.8804 26.4088 11.2657 25.4949 10.8459 24.4891C10.4261 23.4833 10.2096 22.4053 10.2096 21.3166ZM28.2409 25.9678C28.2409 25.9678 29.8319 24.0326 29.8319 22.3549V14.2629C29.8319 12.0586 30.714 9.94453 32.2845 8.38583C33.855 6.82713 35.9856 5.95147 38.2066 5.95147V17.6532C38.2068 19.8579 37.3245 21.9724 35.754 23.5316C34.1836 25.0909 32.0533 25.9672 29.8319 25.9678H28.2409ZM8.77241 25.9678C6.55108 25.9669 4.42072 25.0906 2.8503 23.5314C1.27988 21.9722 0.397705 19.8578 0.397705 17.6532V5.95147C2.61874 5.95147 4.74853 6.82713 6.31904 8.38583C7.88955 9.94453 8.77241 12.0586 8.77241 14.2629V22.3549C8.77241 24.0326 10.3634 25.9678 10.3634 25.9678H8.77241Z"
    fill="#33C0B4" />
</svg>
