<svg width="33" height="33" viewBox="0 0 33 33" fill="none" xmlns="http://www.w3.org/2000/svg">
  <circle cx="16.5" cy="16.5" r="16.5" fill="white" />
  <path
    d="M25.2087 17.5V13.3333C25.2087 12.9134 25.0418 12.5107 24.7449 12.2137C24.448 11.9168 24.0453 11.75 23.6253 11.75H20.4587L18.8753 9.375H14.1253L12.542 11.75H9.37533C8.9554 11.75 8.55267 11.9168 8.25574 12.2137C7.95881 12.5107 7.79199 12.9134 7.79199 13.3333V22.0417C7.79199 22.4616 7.95881 22.8643 8.25574 23.1613C8.55267 23.4582 8.9554 23.625 9.37533 23.625H19.5004"
    stroke="#7D7D7D" stroke-width="2" stroke-linecap="round" stroke-linejoin="round" />
  <path
    d="M16.4997 20.4583C18.2486 20.4583 19.6663 19.0406 19.6663 17.2917C19.6663 15.5428 18.2486 14.125 16.4997 14.125C14.7508 14.125 13.333 15.5428 13.333 17.2917C13.333 19.0406 14.7508 20.4583 16.4997 20.4583Z"
    stroke="#7D7D7D" stroke-width="2" stroke-linecap="round" stroke-linejoin="round" />
  <path fill-rule="evenodd" clip-rule="evenodd"
    d="M25.194 20C25.194 19.4477 24.7463 19 24.194 19C23.6417 19 23.194 19.4477 23.194 20V21.194H22C21.4477 21.194 21 21.6418 21 22.194C21 22.7463 21.4477 23.194 22 23.194H23.194V24.3881C23.194 24.9403 23.6417 25.3881 24.194 25.3881C24.7463 25.3881 25.194 24.9403 25.194 24.3881V23.194H26.3881C26.9403 23.194 27.3881 22.7463 27.3881 22.194C27.3881 21.6418 26.9403 21.194 26.3881 21.194H25.194V20Z"
    fill="#7D7D7D" />
</svg>
