<svg width="24" height="24" viewBox="0 0 24 24" fill="none" xmlns="http://www.w3.org/2000/svg">
  <path fill-rule="evenodd" clip-rule="evenodd"
    d="M19.1107 3.31965C19.3188 3.11154 19.6011 2.99463 19.8954 2.99463C20.1897 2.99463 20.4719 3.11154 20.68 3.31965C20.8881 3.52776 21.0051 3.81001 21.0051 4.10432C21.0051 4.39862 20.8881 4.68087 20.68 4.88898L11.428 14.141L9.33555 14.6641L9.85866 12.5717L19.1107 3.31965ZM19.8954 0.994629C19.0706 0.994629 18.2797 1.32226 17.6965 1.90543L8.24859 11.3533C8.12043 11.4815 8.02951 11.6421 7.98555 11.8179L6.99104 15.796C6.90585 16.1367 7.00569 16.4972 7.25408 16.7456C7.50246 16.994 7.86294 17.0938 8.20372 17.0086L12.1818 16.0141C12.3576 15.9702 12.5182 15.8793 12.6464 15.7511L22.0942 6.30319C22.6774 5.72002 23.0051 4.92906 23.0051 4.10432C23.0051 3.27957 22.6774 2.48861 22.0942 1.90543C21.5111 1.32226 20.7201 0.994629 19.8954 0.994629ZM3.98317 3.10432C3.19043 3.10432 2.43016 3.41923 1.86961 3.97978C1.30906 4.54034 0.994141 5.30061 0.994141 6.09335V20.0166C0.994141 20.8093 1.30906 21.5696 1.86961 22.1301C2.43016 22.6907 3.19043 23.0056 3.98317 23.0056H17.9064C18.6991 23.0056 19.4594 22.6907 20.02 22.1301C20.5805 21.5696 20.8954 20.8093 20.8954 20.0166V13.055C20.8954 12.5027 20.4477 12.055 19.8954 12.055C19.3431 12.055 18.8954 12.5027 18.8954 13.055V20.0166C18.8954 20.2789 18.7912 20.5304 18.6057 20.7159C18.4203 20.9014 18.1687 21.0056 17.9064 21.0056H3.98317C3.72087 21.0056 3.4693 20.9014 3.28382 20.7159C3.09834 20.5304 2.99414 20.2789 2.99414 20.0166V6.09335C2.99414 5.83104 3.09834 5.57948 3.28382 5.394C3.4693 5.20852 3.72086 5.10432 3.98317 5.10432H10.9448C11.4971 5.10432 11.9448 4.6566 11.9448 4.10432C11.9448 3.55203 11.4971 3.10432 10.9448 3.10432H3.98317Z"
    fill="#7D7D7D" />
</svg>
