<svg width="7" height="8" viewBox="0 0 7 8" fill="none" xmlns="http://www.w3.org/2000/svg">
  <path fill-rule="evenodd" clip-rule="evenodd"
    d="M6.85355 1.35355C7.04882 1.15829 7.04882 0.841709 6.85355 0.646447C6.65829 0.451184 6.34171 0.451184 6.14645 0.646447L3.5 3.29289L0.853553 0.646447C0.658291 0.451184 0.341709 0.451184 0.146447 0.646447C-0.0488156 0.841709 -0.0488156 1.15829 0.146447 1.35355L2.79289 4L0.146447 6.64645C-0.0488156 6.84171 -0.0488156 7.15829 0.146447 7.35355C0.341709 7.54882 0.658291 7.54882 0.853553 7.35355L3.5 4.70711L6.14645 7.35355C6.34171 7.54882 6.65829 7.54882 6.85355 7.35355C7.04882 7.15829 7.04882 6.84171 6.85355 6.64645L4.20711 4L6.85355 1.35355Z"
    fill="#2E3841" />
</svg>
