<svg width="35" height="47" viewBox="0 0 35 47" fill="none" xmlns="http://www.w3.org/2000/svg">
  <path fill-rule="evenodd" clip-rule="evenodd"
    d="M29.7175 1.69551C30.1017 1.29868 30.0914 0.665602 29.6945 0.281483C29.2977 -0.102636 28.6646 -0.0923343 28.2805 0.304492L17.9995 10.9256L7.71852 0.304492C7.3344 -0.0923343 6.70132 -0.102636 6.30449 0.281483C5.90767 0.665602 5.89736 1.29868 6.28148 1.69551L16.6078 12.3634L6.28148 23.0313C5.89736 23.4281 5.90767 24.0612 6.30449 24.4453C6.70132 24.8294 7.3344 24.8191 7.71852 24.4223L17.9995 13.8012L28.2805 24.4223C28.6646 24.8191 29.2977 24.8294 29.6945 24.4453C30.0914 24.0612 30.1017 23.4281 29.7175 23.0313L19.3913 12.3634L29.7175 1.69551Z"
    fill="#2E3841" />
  <path
    d="M5.65332 36.9014C4.55501 36.9014 3.68685 37.2682 3.04883 38.002C2.41536 38.7311 2.09863 39.7314 2.09863 41.0029C2.09863 42.3109 2.40397 43.3226 3.01465 44.0381C3.62988 44.749 4.50488 45.1045 5.63965 45.1045C6.33691 45.1045 7.13216 44.9792 8.02539 44.7285V45.7471C7.33268 46.0068 6.47819 46.1367 5.46191 46.1367C3.98991 46.1367 2.85286 45.6901 2.05078 44.7969C1.25326 43.9036 0.854492 42.6344 0.854492 40.9893C0.854492 39.9593 1.0459 39.057 1.42871 38.2822C1.81608 37.5075 2.37207 36.9105 3.09668 36.4912C3.82585 36.0719 4.68262 35.8623 5.66699 35.8623C6.71517 35.8623 7.63118 36.0537 8.41504 36.4365L7.92285 37.4346C7.16634 37.0791 6.40983 36.9014 5.65332 36.9014ZM11.1699 46H10.0352V35.3633H11.1699V46ZM20.043 42.2471C20.043 43.4684 19.7354 44.4232 19.1201 45.1113C18.5049 45.7949 17.6549 46.1367 16.5703 46.1367C15.9004 46.1367 15.3057 45.9795 14.7861 45.665C14.2666 45.3506 13.8656 44.8994 13.583 44.3115C13.3005 43.7236 13.1592 43.0355 13.1592 42.2471C13.1592 41.0257 13.4645 40.0755 14.0752 39.3965C14.6859 38.7129 15.5335 38.3711 16.6182 38.3711C17.6663 38.3711 18.498 38.7197 19.1133 39.417C19.7331 40.1143 20.043 41.0576 20.043 42.2471ZM14.335 42.2471C14.335 43.2041 14.5264 43.9333 14.9092 44.4346C15.292 44.9359 15.8548 45.1865 16.5977 45.1865C17.3405 45.1865 17.9033 44.9382 18.2861 44.4414C18.6735 43.9401 18.8672 43.2087 18.8672 42.2471C18.8672 41.2946 18.6735 40.5723 18.2861 40.0801C17.9033 39.5833 17.3359 39.335 16.584 39.335C15.8411 39.335 15.2806 39.5788 14.9023 40.0664C14.5241 40.554 14.335 41.2809 14.335 42.2471ZM26.8721 43.9561C26.8721 44.6533 26.6123 45.1911 26.0928 45.5693C25.5732 45.9476 24.8441 46.1367 23.9053 46.1367C22.9118 46.1367 22.137 45.9795 21.5811 45.665V44.6123C21.9411 44.7946 22.3262 44.9382 22.7363 45.043C23.151 45.1478 23.5498 45.2002 23.9326 45.2002C24.5251 45.2002 24.9808 45.1068 25.2998 44.9199C25.6188 44.7285 25.7783 44.4391 25.7783 44.0518C25.7783 43.7601 25.6507 43.5117 25.3955 43.3066C25.1449 43.097 24.6527 42.8509 23.9189 42.5684C23.2217 42.3086 22.7249 42.083 22.4287 41.8916C22.137 41.6956 21.9183 41.4746 21.7725 41.2285C21.6312 40.9824 21.5605 40.6885 21.5605 40.3467C21.5605 39.736 21.8089 39.2552 22.3057 38.9043C22.8024 38.5488 23.4837 38.3711 24.3496 38.3711C25.1562 38.3711 25.9447 38.5352 26.7148 38.8633L26.3115 39.7861C25.5596 39.4762 24.8783 39.3213 24.2676 39.3213C23.7298 39.3213 23.3242 39.4056 23.0508 39.5742C22.7773 39.7428 22.6406 39.9753 22.6406 40.2715C22.6406 40.472 22.6908 40.6429 22.791 40.7842C22.8958 40.9255 23.0622 41.0599 23.29 41.1875C23.5179 41.3151 23.9554 41.4997 24.6025 41.7412C25.4912 42.0648 26.0905 42.3906 26.4004 42.7188C26.7148 43.0469 26.8721 43.4593 26.8721 43.9561ZM31.8896 46.1367C30.7822 46.1367 29.9072 45.7995 29.2646 45.125C28.6266 44.4505 28.3076 43.514 28.3076 42.3154C28.3076 41.1077 28.6038 40.1484 29.1963 39.4375C29.7933 38.7266 30.5931 38.3711 31.5957 38.3711C32.5345 38.3711 33.2773 38.681 33.8242 39.3008C34.3711 39.916 34.6445 40.7295 34.6445 41.7412V42.459H29.4834C29.5062 43.3385 29.7272 44.0062 30.1465 44.4619C30.5703 44.9176 31.165 45.1455 31.9307 45.1455C32.7373 45.1455 33.5348 44.9769 34.3232 44.6396V45.6514C33.9222 45.8245 33.5417 45.9476 33.1816 46.0205C32.8262 46.098 32.3955 46.1367 31.8896 46.1367ZM31.582 39.3213C30.9805 39.3213 30.4997 39.5173 30.1396 39.9092C29.7842 40.3011 29.5745 40.8434 29.5107 41.5361H33.4277C33.4277 40.8206 33.2682 40.2738 32.9492 39.8955C32.6302 39.5127 32.1745 39.3213 31.582 39.3213Z"
    fill="#2E3841" />
</svg>
