<svg width="240" height="127" viewBox="0 0 240 127" fill="none" xmlns="http://www.w3.org/2000/svg">
  <path fill-rule="evenodd" clip-rule="evenodd"
    d="M43.7402 77.6534L44.3896 85.7989L56.7303 88.731L66.1482 92.9666L73.6174 99.483L77.1898 96.5506L81.7363 86.4505L86.9323 85.473L105.768 87.428L112.263 89.3826L109.99 100.46L107.717 108.606L145.388 106.325L144.089 87.428L136.295 70.1598L105.443 55.1724L82.3857 58.1047L66.1482 76.0243L59.0035 79.9341L46.3383 79.2825"
    fill="#8CF7AA" />
  <path fill-rule="evenodd" clip-rule="evenodd"
    d="M25.7709 93.8766C25.7709 95.2057 26.5938 95.1215 27.5904 95.0196C27.9301 94.9848 28.2902 94.9478 28.6449 94.9644C28.8611 94.9743 29.2259 95.0382 29.6586 95.114L29.6589 95.1143C30.9251 95.3362 32.7734 95.6603 33.1847 95.0337C33.5781 94.4343 33.0299 94.3525 32.4707 94.2693C32.0937 94.2134 31.712 94.1564 31.6108 93.9395C31.3421 93.3624 31.869 92.962 32.3812 92.5726C32.8355 92.2271 33.2787 91.8904 33.145 91.4468C33.0103 90.9994 32.4086 91.2534 31.7589 91.5278C31.0379 91.8322 30.2578 92.1615 29.9914 91.5849C29.7374 91.0354 30.3217 90.5262 30.852 90.0637C31.3006 89.6725 31.711 89.3149 31.5432 88.9948C31.2323 88.4025 28.081 89.9017 27.6786 90.1594C26.5401 90.8881 25.7192 92.5261 25.7709 93.8766ZM166.507 62.2851C166.991 62.8065 167.359 63.4208 167.724 64.0302C168.09 64.6404 168.453 65.2455 168.926 65.748C169.332 66.1805 169.799 66.3485 170.283 66.5222V66.5225C170.502 66.601 170.725 66.681 170.946 66.7874C171.375 66.9929 171.819 67.2159 172.274 67.444C174.026 68.323 175.942 69.2846 177.763 69.6628C176.42 68.0909 175.567 66.6686 174.769 64.7584C174.688 64.5636 174.601 64.3655 174.512 64.1654C174.291 63.6642 174.065 63.1507 173.913 62.6437C173.752 62.1099 173.721 61.5596 173.69 61.0121C173.662 60.5178 173.635 60.0257 173.512 59.5498C173.442 59.2814 173.414 59.0741 173.393 58.9205L173.393 58.9198V58.9195C173.368 58.7378 173.353 58.6317 173.293 58.5885C173.209 58.5273 173.034 58.5912 172.613 58.7451L172.579 58.7572L172.528 58.7761L172.473 58.796C172.107 58.9287 171.768 59.2113 171.438 59.4867C171.231 59.6594 171.027 59.8291 170.822 59.9576C170.19 60.354 169.53 60.6674 168.874 60.9796C168.063 61.365 167.255 61.7488 166.507 62.2851ZM228.007 34.0628C228.053 34.5564 234.703 32.183 235.36 31.7476C236.587 30.9331 238.026 27.1853 236.72 26.0744C235.544 25.0746 232.96 26.2929 231.09 27.1749C230.453 27.4754 229.898 27.7368 229.511 27.8581C226.943 28.6606 223.985 29.1124 221.309 28.839C220.095 28.7148 218.9 28.6116 217.675 28.5358C217.469 28.5232 217.231 28.4909 216.977 28.4561C216.1 28.3368 215.03 28.1909 214.419 28.7389C213.672 29.4069 213.763 30.7368 214.143 31.5674C214.274 31.8539 214.432 32.0122 214.585 32.1651C214.719 32.2988 214.848 32.4283 214.952 32.6355C214.98 32.691 214.965 32.762 214.947 32.8478C214.918 32.9837 214.882 33.1567 214.996 33.363C215.503 34.29 217.23 35.8391 218.16 36.311C219.052 36.7636 219.377 36.485 219.872 36.0605C220.04 35.9168 220.227 35.7563 220.462 35.602C222.082 34.54 224.611 34.3399 226.735 34.1719C227.181 34.1366 227.609 34.1028 228.007 34.0628ZM212.61 34.3499C210.685 36.7002 208.42 38.3343 206.046 40.0476L206.045 40.0481C205.576 40.3868 205.103 40.7283 204.627 41.0795C203.983 41.5539 203.347 42.0383 202.712 42.5222L202.711 42.5224H202.711L202.711 42.5227L202.711 42.5229L202.71 42.5232V42.5234C200.823 43.9602 198.94 45.3939 196.87 46.564C196.647 46.6902 196.385 46.8021 196.119 46.9154C195.416 47.2146 194.687 47.5253 194.58 48.1444C194.488 48.6829 195.127 49.8299 195.662 50.7894C195.925 51.2604 196.162 51.6861 196.276 51.9727C197.296 54.5479 198.081 57.1823 198.872 59.8353C198.983 60.2057 199.093 60.576 199.204 60.9468L199.397 60.647C202.042 56.5227 204.722 52.344 207.963 48.6178C210.893 45.2495 213.898 41.7252 216.458 38.0957C214.908 37.1515 213.624 35.8495 212.61 34.3499ZM190.15 3.45671C187.437 3.34786 186.609 5.56298 185.817 7.68391C185.506 8.51697 185.2 9.33562 184.788 9.99298C183.98 11.2811 182.905 12.6641 181.711 13.6279C180.806 14.3579 179.721 14.7883 178.639 15.2175C178.108 15.428 177.578 15.6385 177.071 15.8836C175.674 16.5578 174.433 17.2336 173.561 18.5346C173.478 18.6584 173.386 18.7893 173.289 18.9258C172.684 19.7802 171.922 20.8571 172.357 21.8574C172.658 22.5515 173.479 23.1247 174.285 23.6873C174.856 24.086 175.42 24.4794 175.785 24.9071C176.83 26.1284 176.978 26.0931 178.157 25.8095C178.348 25.7633 178.567 25.7108 178.822 25.6559C179.73 25.4598 180.594 25.3987 181.523 25.4312C181.636 25.435 181.829 25.471 182.053 25.5125C182.576 25.6097 183.267 25.7382 183.5 25.5652C183.782 25.3559 183.695 24.7103 183.618 24.1491C183.579 23.8613 183.543 23.5956 183.562 23.4221C183.644 22.644 183.92 21.841 184.183 21.1074C185.07 18.6196 186.642 16.8556 188.279 15.0177L188.28 15.0162L188.282 15.0145L188.283 15.0125L188.285 15.0107C188.563 14.6991 188.842 14.3849 189.121 14.0651C190.138 12.8958 191.341 11.8984 192.543 10.9021C193.777 9.87915 195.01 8.85721 196.039 7.6511C197.161 6.33664 196.65 5.4074 195.111 4.79205C194.677 4.61858 194.201 4.54178 193.726 4.46523C193.346 4.40385 192.966 4.34246 192.609 4.23162C192.327 4.14414 192.056 4.02807 191.786 3.91226C191.26 3.68684 190.738 3.46342 190.15 3.45671ZM43.1902 96.2647C43.7193 96.2647 44.2449 96.0487 44.7641 95.8353C45.3245 95.6046 45.8775 95.3772 46.42 95.4277C46.682 95.4523 46.9765 95.7003 47.2551 95.9352C47.4345 96.0863 47.6075 96.2319 47.7608 96.3089C48.317 96.5873 48.9175 96.726 49.5306 96.802C49.9352 96.852 50.2911 96.8525 50.6206 96.8527C51.3791 96.8535 51.9965 96.854 52.7388 97.4604C53.516 98.0951 54.3182 98.8954 55.0643 99.6394C55.2358 99.8107 55.4045 99.9787 55.5691 100.141C56.9337 101.488 58.1229 103.099 59.2893 104.679C59.7294 105.275 60.1663 105.866 60.608 106.437C62.5984 109.012 64.6657 111.055 67.3137 112.984C69.4058 114.507 71.5253 115.509 73.8813 116.623L74.0963 116.724C76.4921 117.858 79.5055 119.172 82.2236 119.235C84.3918 119.285 87.1019 118.589 89.075 117.664C90.0214 117.22 90.471 117.142 91.2434 117.01C91.4079 116.981 91.5869 116.95 91.7882 116.913C93.5077 116.594 95.4887 115.692 97.1079 114.955L97.2836 114.875C102.465 112.518 105.748 107.38 108.084 102.351C109.414 99.4888 110.245 96.6922 110.799 93.5955C110.828 93.4345 110.856 93.2849 110.883 93.1459C111.134 91.8302 111.207 91.446 109.72 90.815C108.406 90.257 107.007 89.8679 105.624 89.4829C105.26 89.3817 104.898 89.2808 104.538 89.1772C99.4704 87.7178 93.6939 87.396 88.4606 87.6189C88.1487 87.6321 87.8358 87.6537 87.5229 87.6753H87.5225H87.5222H87.5217H87.5215H87.521C87.0088 87.7109 86.4958 87.7462 85.9843 87.7457C85.8168 87.7454 85.575 87.7149 85.3103 87.6818C84.7832 87.6155 84.1658 87.5379 83.8649 87.6649C83.1519 87.9669 82.5462 89.3338 82.115 90.3068L82.1148 90.307L82.1145 90.3078L82.1143 90.3083C81.9994 90.5672 81.897 90.7983 81.8083 90.9738C81.0851 92.4048 80.4432 93.8726 79.8015 95.3399V95.3402C79.2296 96.6474 78.6582 97.9542 78.0295 99.2341C77.3356 100.647 76.2992 101.576 74.6614 101.599C73.0373 101.622 72.1744 100.703 71.1897 99.6551C71.0622 99.5192 70.9323 99.381 70.7986 99.2425C68.4766 96.8361 65.3511 94.7676 62.4687 93.0937C59.3554 91.2865 55.6431 89.5348 52.0986 88.8966C51.7318 88.8307 51.2914 88.7306 50.8038 88.62C48.1533 88.0181 44.1067 87.099 42.8939 89.5999C42.9185 89.5965 42.9459 89.5927 42.9752 89.5888L42.9814 89.588H42.9817C43.8274 89.4729 46.4332 89.1183 46.5478 90.3147C46.589 90.7457 45.874 91.0113 45.0514 91.3168C44.0953 91.6719 42.9941 92.081 42.7654 92.8661C42.9431 92.8522 43.2073 92.8072 43.518 92.7542C44.7817 92.539 46.8197 92.1921 46.9951 93.267C47.0883 93.8368 46.2739 94.1803 45.7107 94.4179C45.5706 94.4771 45.4458 94.5295 45.3546 94.5774C44.4487 95.0539 43.9032 95.5487 43.1902 96.2647ZM141.584 53.7258C140.879 53.229 139.619 53.1574 138.54 53.096C138.141 53.0734 137.766 53.052 137.453 53.0113L137.445 53.0103H137.445V53.01C135.969 52.8169 134.533 52.6291 133.042 52.7106C132.503 52.7401 131.955 52.7578 131.403 52.7757C129.818 52.8271 128.203 52.8796 126.683 53.2141C124.115 53.7785 121.683 54.6453 119.362 55.8616C119.317 55.8853 119.271 55.9091 119.225 55.9335L119.222 55.9345C118.463 56.3281 117.498 56.8282 117.505 57.8931C117.51 58.756 117.79 58.804 118.449 58.9173C118.602 58.9436 118.775 58.9734 118.971 59.0179C121.141 59.5118 123.185 60.7402 125.156 61.9247C125.718 62.263 126.275 62.5975 126.827 62.9104C129.469 64.4075 132.101 66.09 134.553 67.8844C139.254 71.3242 141.937 76.2732 144.024 81.653C145.104 84.4353 145.887 87.6845 146.212 90.65C146.408 92.4391 146.409 94.2335 146.41 96.0271V96.0276C146.411 97.5416 146.412 99.0547 146.53 100.563C146.538 100.667 146.547 100.812 146.558 100.986V100.986C146.627 102.122 146.773 104.515 147.283 104.934C147.594 105.191 148.765 104.948 149.657 104.764C150.043 104.684 150.376 104.615 150.565 104.602C151.978 104.505 153.396 104.465 154.806 104.426H154.806C155.997 104.393 157.182 104.36 158.352 104.293C161.038 104.138 163.757 104.168 166.482 104.197C169.242 104.227 172.009 104.257 174.754 104.096C177.498 103.934 180.154 103.548 182.845 102.994C183.601 102.839 184.414 102.725 185.243 102.608H185.243C187.155 102.34 189.153 102.059 190.744 101.23C195.136 98.9416 197.813 93.425 198.006 88.754C198.215 83.6907 197.869 78.1809 196.806 73.1368C196.673 72.5077 196.545 71.8862 196.417 71.2686C196.009 69.2893 195.609 67.353 195.109 65.3608C194.457 62.7657 193.735 60.1805 193.018 57.613L193.012 57.5911C192.922 57.2708 192.833 56.9509 192.744 56.6313C192.176 54.5974 191.479 52.6206 190.783 50.6456V50.6453V50.6451H190.783V50.6448V50.6446C189.776 47.789 188.771 44.9371 188.16 41.9232C187.591 39.1186 186.784 36.1862 185.943 33.4487C185.633 32.4399 185.021 30.5233 184.299 29.7568C183.725 29.1477 183.221 29.2638 182.52 29.4251C182.295 29.477 182.049 29.5334 181.775 29.5719C181.3 29.6388 180.722 29.6303 180.123 29.6219C178.333 29.5965 176.351 29.5685 176.352 31.5209C176.353 32.3569 176.515 33.2171 176.677 34.073V34.0733V34.0735V34.0738L176.677 34.074V34.0743V34.0748V34.075V34.0753C176.792 34.6822 176.906 35.2871 176.962 35.8803C177.029 36.5931 177.048 37.3078 177.067 38.0224V38.0226V38.0229V38.0231V38.0234V38.0236V38.0239V38.0241V38.0244C177.093 39.0011 177.119 39.9778 177.268 40.9485C177.355 41.5201 177.451 42.0826 177.546 42.6405L177.547 42.6425C177.905 44.7401 178.252 46.772 178.09 48.9804C178.007 50.1167 177.866 51.2361 177.726 52.3537C177.491 54.2263 177.256 56.0935 177.293 58.0246C177.3 58.378 177.303 58.7299 177.307 59.0801C177.333 61.6384 177.359 64.1125 178.585 66.4807C178.824 66.943 179.045 67.4383 179.266 67.9346V67.9348C179.59 68.659 179.914 69.3857 180.298 70.017C181.057 71.2636 181.714 71.6287 183.07 72.1307C183.268 72.204 183.534 72.2826 183.832 72.3708C184.811 72.6601 186.138 73.0523 186.56 73.7019C187.354 74.9249 186.293 75.4197 185.249 75.378C182.607 75.2731 179.908 74.2889 177.356 73.3584L177.355 73.3582L177.355 73.358L177.354 73.3577L177.353 73.3572L177.348 73.3555C176.786 73.1507 176.231 72.9484 175.686 72.759C174.814 72.4556 173.963 72.1044 173.112 71.7535L173.112 71.7532C172.574 71.5313 172.037 71.3096 171.495 71.1006C171.183 70.98 170.887 70.8814 170.601 70.7862C169.861 70.5399 169.183 70.3142 168.45 69.7834C167.17 68.8564 166.042 67.7462 164.913 66.6358C163.856 65.5969 162.8 64.5576 161.619 63.6681C156.998 60.1858 151.459 58.1068 145.655 57.49C144.162 57.3312 143.006 57.4025 141.51 57.5293C141.29 57.5479 141.069 57.5633 140.849 57.5787C140.245 57.6207 139.645 57.6625 139.044 57.7738C138.879 57.8046 138.553 57.9282 138.184 58.0683C137.499 58.3285 136.662 58.6459 136.422 58.5316C134.021 57.3903 140.82 53.9159 141.584 53.7258ZM43.7342 77.8252C43.7349 77.8135 43.7357 77.8019 43.7367 77.7904C43.7412 77.8063 43.7456 77.822 43.7499 77.8377L43.7342 77.8252ZM43.8309 78.1093C43.8033 78.0216 43.7765 77.9309 43.7499 77.8377C44.2395 78.2266 44.6828 78.6518 45.1245 79.0758H45.1247L45.125 79.0763C45.7165 79.6437 46.305 80.2086 46.9979 80.6793C48.4391 81.6583 50.1529 82.1762 51.8608 82.5425C55.0022 83.2165 59.2957 83.048 62.291 81.7234C65.0601 80.4986 66.8102 78.289 68.3506 75.7237C68.5805 75.3404 68.7157 74.9234 68.8459 74.5211C69.1262 73.6552 69.3845 72.8584 70.5187 72.6176C71.2909 72.4536 72.2139 72.7583 73.1504 73.0674C73.9109 73.3182 74.6801 73.5722 75.3844 73.5804C76.9086 73.5978 78.8854 72.9029 80.1305 71.9645C80.55 71.6481 80.8483 71.0283 81.1321 70.4385V70.4383C81.4241 69.8311 81.701 69.2555 82.0792 69.0753C82.377 68.9337 82.8663 69.1434 83.2898 69.3251C83.4896 69.4106 83.6748 69.4901 83.8182 69.5232C84.6025 69.7051 85.3831 69.762 86.1702 69.5555C87.1897 69.2878 88.8459 68.5522 89.6409 67.8561C90.0674 67.4828 90.3184 66.732 90.5602 66.0093C90.808 65.2689 91.0456 64.5583 91.4517 64.3143C91.7917 64.1103 92.3772 64.2668 92.9729 64.4259C93.428 64.5474 93.889 64.6704 94.2511 64.6359C96.9449 64.3787 98.7817 62.8366 99.8171 60.3652C99.8946 60.1798 99.9771 59.7784 100.072 59.3174V59.3172C100.26 58.4001 100.497 57.2474 100.841 57.0924C101.044 57.0011 102.121 57.3928 102.901 57.6769C103.248 57.8029 103.536 57.9078 103.664 57.9398C106.286 58.5972 109.572 59.9971 111.844 61.4167C113.586 62.505 115.578 63.2243 117.557 63.9388L117.557 63.939H117.557L117.557 63.9393C118.681 64.3446 119.8 64.7487 120.867 65.2179C123.322 66.2975 125.716 67.5936 127.982 68.9737C130.648 70.5976 133.065 72.2418 135.238 74.5064L135.329 74.6011L135.448 74.7256C137.516 76.8781 139.929 79.39 140.826 82.2694C141.162 83.348 141.276 84.5071 141.389 85.6578V85.6581V85.6583V85.6586C141.452 86.298 141.514 86.935 141.615 87.5538C141.795 88.6657 142.077 89.7433 142.358 90.8232C142.516 91.4261 142.674 92.0298 142.814 92.6404C143.556 95.8728 143.852 99.6983 143.83 103.023C143.829 103.301 143.843 103.56 143.857 103.799C143.911 104.74 143.947 105.365 142.868 105.61C141.999 105.808 140.812 105.562 139.711 105.334C139.141 105.216 138.594 105.103 138.127 105.059C136.948 104.947 135.8 104.979 134.646 105.011H134.645H134.645H134.644H134.644H134.643C134.034 105.029 133.423 105.046 132.805 105.042C132.29 105.038 131.764 105.007 131.235 104.976C130.097 104.908 128.942 104.84 127.833 105.044C125.856 105.409 123.804 105.49 121.74 105.572C120.96 105.603 120.177 105.634 119.397 105.68C118.53 105.732 117.662 105.737 116.794 105.742C115.736 105.748 114.678 105.754 113.622 105.845C113.49 105.856 113.183 105.912 112.79 105.983C111.566 106.203 109.512 106.574 109.338 106.229C109.14 105.836 110.063 104.174 110.77 102.901C111.088 102.33 111.361 101.838 111.47 101.574C112.139 99.9546 112.736 98.2962 113.061 96.5694C113.611 93.6462 113.806 90.8197 113.83 87.8794C113.857 84.4793 113.267 81.2755 112.35 78.0236C112.327 77.9445 112.299 77.8205 112.263 77.6657C112.011 76.5764 111.407 73.9601 110.175 74.7502C109.433 75.2269 109.859 77.3063 110.098 78.4716C110.155 78.7485 110.201 78.9737 110.219 79.1136C110.302 79.7829 110.417 80.4469 110.531 81.1103C110.707 82.1334 110.883 83.1556 110.946 84.1945C110.958 84.3878 110.983 84.6167 111.01 84.8623C111.088 85.577 111.181 86.4335 111.01 86.9705C110.95 87.1579 110.923 87.2931 110.904 87.3895C110.883 87.4959 110.871 87.5548 110.835 87.5841C110.79 87.6209 110.708 87.6115 110.522 87.5904C110.431 87.5799 110.316 87.5667 110.169 87.5548C109.409 87.4934 108.535 86.9822 107.703 86.4948C107.157 86.1755 106.63 85.8666 106.163 85.701C104.661 85.168 103.178 84.8486 101.621 84.566C98.2578 83.9564 94.8878 83.7332 91.4666 83.7439C90.6427 83.7466 89.7798 83.8925 88.9189 84.0382H88.9187C87.9149 84.2077 86.9143 84.3769 85.9823 84.318C85.9145 84.3138 85.8479 84.3093 85.782 84.3051C84.6177 84.2305 83.7538 84.1751 82.4199 84.4239C82.6339 83.2533 83.1548 82.1364 83.6762 81.0185C84.269 79.7478 84.8625 78.4756 85.0064 77.1214C85.3727 73.6738 82.5049 76.006 81.5466 77.3756C80.1658 79.3492 79.0643 81.4299 78.7154 83.8701C78.6495 84.3312 78.7077 84.7959 78.7649 85.2535C78.8277 85.7545 78.8894 86.2471 78.786 86.7173C78.658 87.2978 78.2395 87.9385 77.8388 88.5519C77.5926 88.9289 77.353 89.2957 77.1917 89.632C76.2025 91.6923 75.5139 93.8512 74.8647 96.0368C74.8138 96.2085 74.7735 96.3691 74.7367 96.5152V96.5155C74.5459 97.277 74.4522 97.651 73.4484 97.1937C72.9841 96.9822 72.6198 96.5709 72.2611 96.166C72.0534 95.9317 71.8478 95.6993 71.6257 95.5092C68.6771 92.9834 65.5666 90.6395 62.1608 88.7028C58.6026 86.6793 55.1339 85.7351 51.1005 85.3099C50.8766 85.2863 50.6169 85.2649 50.3338 85.2413H50.3333H50.3331C48.7137 85.1071 46.3348 84.91 45.5686 83.9067C44.8928 83.0224 44.5695 81.4401 44.2767 80.0068C44.1333 79.3055 43.9974 78.6399 43.8309 78.1093ZM46.1245 77.1338C45.0683 76.6248 43.8667 76.046 43.7367 77.7904C43.596 77.2889 43.4683 76.7183 43.3346 76.1226C42.965 74.4733 42.5527 72.6337 41.7117 71.5477C41.4761 71.2437 41.187 71.1508 40.9199 71.0648C40.7096 70.9972 40.5128 70.9338 40.3662 70.7753C40.0185 70.3987 39.9745 69.5957 39.9394 68.959V68.9588V68.9585C39.927 68.7299 39.9156 68.5229 39.8917 68.3643C39.8351 67.9868 39.7757 67.6155 39.7168 67.2479L39.7165 67.2467V67.2464V67.2459C39.4242 65.4207 39.1469 63.6907 39.3072 61.7751C39.3122 61.7157 39.3159 61.6126 39.3209 61.4818C39.3442 60.8697 39.3904 59.6532 39.675 59.4817C39.9511 59.3154 40.7325 59.5361 41.3782 59.7183V59.7185C41.709 59.8117 42.0042 59.8952 42.1777 59.9114C43.2106 60.0076 44.2506 60.1405 45.293 60.2735H45.2932C48.2465 60.6505 51.2183 61.03 54.0983 60.5876C57.5956 60.0508 60.9502 58.9158 64.1746 57.4634C64.2439 57.8466 64.4243 58.1543 64.7154 58.3862C64.817 58.2368 64.9062 58.0957 64.9902 57.9632C65.4329 57.2646 65.7241 56.8043 66.8706 56.6246C67.7407 56.4882 68.9443 56.7586 69.6658 57.3019C72.458 59.4027 69.2743 61.4739 67.4385 62.4163C69.7075 64.9123 70.4225 70.1964 67.8105 72.7468C67.438 73.1107 67.0642 73.4439 66.6939 73.7745L66.6934 73.7747C66.0331 74.364 65.3827 74.9441 64.7673 75.6707C63.7615 76.8585 62.9573 77.781 61.5002 78.2072C61.3274 78.2577 61.1495 78.3106 60.9676 78.3645C59.5301 78.791 57.8414 79.292 56.4389 79.3651C55.4083 79.4188 54.3026 79.205 53.2369 78.999H53.2366C52.7473 78.9043 52.2664 78.8114 51.8049 78.7465C49.9814 78.491 48.2149 78.0847 46.5294 77.3247C46.3987 77.2658 46.263 77.2004 46.1245 77.1338ZM41.7577 98.6312C41.8635 98.7609 42.0634 98.9808 42.3206 99.2647C43.8602 100.961 47.4676 104.935 45.4958 105.513C44.6515 105.761 43.3134 104.375 42.3688 103.396C42.0701 103.087 41.8106 102.818 41.6182 102.655C40.3786 101.6 39.08 100.907 37.5682 100.325C33.8786 98.9058 30.5404 97.6299 26.5225 98.2194C25.9466 98.3039 25.3293 98.4453 24.6983 98.5899C23.4412 98.878 22.1287 99.1787 20.9768 99.0668C19.2354 98.8979 19.6865 97.3446 20.7755 96.4774C21.1446 96.1837 21.5688 96.0326 21.9764 95.8874C22.6437 95.6496 23.2665 95.4277 23.5319 94.6209C23.7203 94.0473 23.738 93.4076 23.7559 92.7592C23.779 91.9239 23.8026 91.0742 24.192 90.3336C24.783 89.21 26.176 88.0442 27.2514 87.3933C27.4075 87.2986 27.6008 87.2136 27.7984 87.1268C28.1938 86.9531 28.6056 86.7722 28.7689 86.4934C28.9202 86.2351 28.4876 85.0551 28.2159 84.3143V84.314C28.1269 84.072 28.0554 83.8766 28.027 83.776C27.8809 83.2548 27.731 82.7336 27.5814 82.212C27.1555 80.7293 26.7287 79.2431 26.3766 77.7459C25.9352 75.8701 25.8204 74.8981 27.7962 74.2174C29.4198 73.6577 31.0859 73.2583 32.7488 72.8599C34.1741 72.5184 35.5972 72.1774 36.9894 71.7363C36.6291 70.7976 35.7523 71.0238 34.8516 71.2564C34.4157 71.369 33.9743 71.4831 33.5829 71.4672C32.1123 71.408 30.4107 70.9241 29.0102 70.4723C25.8311 69.4461 23.6679 66.888 23.1765 63.5893C23.1311 63.2854 23.1649 62.853 23.1999 62.4061C23.2479 61.7895 23.2981 61.1458 23.1455 60.7748C22.9715 60.3515 22.5749 60.0806 22.1762 59.8083C22.0055 59.6917 21.8345 59.5749 21.6804 59.4457C20.3565 58.336 19.1839 56.8128 18.4697 55.2361C17.7539 53.656 17.704 51.881 18.12 50.2134C18.1536 50.0784 18.1851 49.9606 18.2132 49.855C18.3772 49.2414 18.4309 49.0406 18.1545 48.2995C17.9801 47.8317 17.7542 47.3879 17.5278 46.9427C17.2678 46.4315 17.0068 45.9188 16.8219 45.3668C16.2555 43.6751 15.9466 41.8514 15.9774 40.065C16.0006 38.7438 16.3577 37.9031 16.7511 36.9771C16.9544 36.4984 17.1671 35.9971 17.3486 35.3949C17.6001 34.5606 17.4957 33.5355 17.3921 32.515C17.3225 31.8298 17.2529 31.1466 17.2917 30.525C17.4144 28.5448 17.9214 26.9537 18.7965 25.1912C20.141 22.483 22.2702 19.5799 25.0417 18.1598C25.294 18.0303 25.6215 17.957 25.9491 17.8837C26.3323 17.7977 26.7161 17.712 26.98 17.5358C27.4644 17.2129 27.5934 16.7681 27.746 16.2414C27.7852 16.1065 27.8257 15.9663 27.8742 15.8214C28.4423 14.1267 29.1516 12.7539 30.3801 11.458C34.3645 7.25619 41.3461 5.76801 46.9452 6.12266C47.306 6.14553 47.6607 6.22158 48.0111 6.29663C48.6376 6.43084 49.251 6.56206 49.8624 6.38287C50.222 6.27725 50.5936 6.02474 50.9673 5.77099C51.2795 5.55875 51.5931 5.34576 51.9028 5.21603C52.7644 4.85567 53.6276 4.64467 54.5546 4.55247C56.3852 4.37005 57.8742 4.56291 59.5614 5.18099C60.0614 5.36441 60.5446 5.56074 61.0329 5.75931L61.0334 5.75956C61.1671 5.81399 61.3013 5.86842 61.4363 5.92285C62.1936 6.22878 62.3392 6.18976 62.7816 6.07146C62.9183 6.03493 63.0833 5.99069 63.3032 5.94695C65.1612 5.5769 66.2287 5.85077 67.8749 6.64357C68.0354 6.72087 68.23 6.79095 68.4308 6.86302H68.4311C68.779 6.98828 69.1456 7.12 69.3847 7.30739C69.627 7.49776 69.8042 7.86434 69.9812 8.23017C70.1939 8.67006 70.4061 9.10896 70.7307 9.23869C70.9425 9.32369 71.4378 9.1537 71.8782 9.00284C72.124 8.91859 72.3526 8.8403 72.505 8.81545C73.0038 8.73418 73.4956 8.75456 73.9887 8.77494C74.2372 8.78513 74.486 8.79557 74.7362 8.79284C76.0577 8.77842 77.4546 8.82763 78.6612 9.45243C79.4177 9.84411 80.3025 10.5385 81.0292 11.1089C81.1756 11.2237 81.3155 11.3335 81.4465 11.4347C81.8652 11.758 82.2234 12.1927 82.583 12.6296C83.1536 13.3225 83.7287 14.0209 84.558 14.2895C84.8329 14.3785 85.1192 14.3745 85.407 14.3705C85.6734 14.3671 85.9411 14.3633 86.201 14.4337C86.9059 14.624 87.5826 15.1345 88.1535 15.5853C88.5633 15.9092 88.9468 16.4117 89.3273 16.9105C89.8584 17.6064 90.3833 18.2945 90.966 18.4782C91.2968 18.5823 91.7183 18.5811 92.1525 18.5798C92.5947 18.5783 93.0497 18.5771 93.4349 18.687C94.3935 18.9603 95.188 19.3567 95.8986 20.0819C97.254 21.4655 97.6368 23.5109 97.6949 25.387C97.6996 25.5433 97.6733 25.7874 97.6435 26.0635C97.5766 26.6808 97.4924 27.4572 97.7019 27.7674C97.844 27.9781 98.1947 28.1417 98.5546 28.3094C98.8752 28.4588 99.2027 28.6114 99.3971 28.8037C100.687 30.0812 101.27 32.2101 101.4 33.9602C101.512 35.4476 101.254 36.608 100.968 37.8931C100.871 38.3333 100.77 38.7878 100.679 39.2752C100.609 39.6552 100.532 39.8361 100.492 39.9293C100.47 39.98 100.46 40.0046 100.467 40.0213C100.474 40.0372 100.498 40.0456 100.545 40.062C100.64 40.0961 100.833 40.1644 101.177 40.4047C101.867 40.8864 102.344 41.2234 102.791 41.9794C103.727 43.5603 103.963 45.424 103.808 47.2256C103.694 48.5584 103.246 49.6897 102.794 50.8334C102.484 51.6188 102.171 52.4098 101.962 53.2757C103.867 53.2757 105.89 53.6816 107.812 54.067C108.274 54.1597 108.73 54.2512 109.177 54.3354C109.806 54.4545 110.331 54.7415 110.868 55.0348H110.868H110.868C111.057 55.1382 111.247 55.2421 111.443 55.3397C111.854 55.5435 112.198 55.634 112.551 55.7264C112.759 55.7811 112.969 55.8363 113.198 55.9161L113.24 55.9307C113.938 56.1743 114.234 56.2777 114.471 56.1996C114.644 56.1422 114.786 55.9869 115.032 55.7168C115.142 55.5965 115.272 55.4533 115.435 55.2858C119.562 51.0524 125.436 48.4965 131.36 48.5798C134.664 48.6258 137.861 49.0619 140.95 50.2514L141.12 50.3168C142.355 50.7914 143.703 51.3096 144.789 52.0485C146.083 52.9298 146.294 52.934 147.956 52.9685L148.04 52.9703C154.339 53.101 160.451 56.4842 165.035 60.5847C165.378 58.2858 168.554 56.7561 170.852 55.6501C171.303 55.4329 171.72 55.2321 172.075 55.045C172.214 54.9719 172.35 54.9053 172.483 54.8407C173.058 54.5606 173.562 54.3156 173.857 53.7226C174.056 53.3242 174.131 52.6802 174.206 52.053V52.0527C174.258 51.6046 174.31 51.1652 174.405 50.83C174.822 49.3525 175.305 47.5447 175.267 45.9864C175.213 43.6992 174.917 41.4175 174.622 39.1343C174.334 36.9142 174.047 34.6926 173.98 32.4633C173.972 32.1862 173.958 31.9009 173.944 31.6114C173.9 30.7147 173.854 29.779 173.968 28.929C173.999 28.6949 174.05 28.4836 174.098 28.2848C174.236 27.713 174.35 27.2415 173.909 26.6194C173.445 25.9651 172.82 25.5125 172.196 25.0607C171.303 24.4138 170.412 23.7686 170 22.5346C168.872 19.1577 170.809 15.7044 173.453 13.6958C174.016 13.2683 174.575 12.9654 175.116 12.6714C176.04 12.1703 176.915 11.6951 177.684 10.6734C178.092 10.1319 178.476 9.55358 178.862 8.97277C179.517 7.98686 180.177 6.99325 180.965 6.1577C181.346 5.75459 181.714 5.30177 182.086 4.84424H182.086V4.84399C182.741 4.03826 183.409 3.21763 184.177 2.62688C185.411 1.67701 187.224 1.03506 188.698 0.583737C192.236 -0.499842 196.582 -0.241124 199.072 2.78519C201.61 5.87066 197.87 10.2335 195.75 12.3865C195.196 12.9495 194.693 13.5596 194.189 14.1702C193.758 14.6931 193.326 15.2165 192.862 15.7108C192.392 16.2119 191.865 16.6624 191.345 17.1063H191.345C190.767 17.6004 190.198 18.086 189.729 18.6243C189.593 18.7792 189.455 18.9362 189.315 19.0953H189.315C188.485 20.0372 187.597 21.0462 186.926 22.0791C186.799 22.2752 186.657 22.4767 186.51 22.6835C186.086 23.2837 185.632 23.9257 185.449 24.586C185.228 25.3813 185.26 25.3949 185.428 25.4668C185.53 25.51 185.682 25.5749 185.858 25.8468C185.951 25.9894 186.032 26.1062 186.103 26.2089C186.399 26.6371 186.529 26.8252 186.66 27.6538C186.817 28.6524 187.041 29.3833 187.58 30.2365C187.763 30.5248 187.948 30.8096 188.133 31.0937L188.133 31.0939L188.134 31.0949L188.135 31.0964L188.136 31.0981C188.851 32.1969 189.558 33.2837 190.056 34.5171C190.717 36.1574 191.225 37.8178 191.738 39.4961L191.739 39.4964V39.4966V39.4969L191.739 39.4971V39.4974C191.872 39.9333 192.006 40.3702 192.142 40.8081C192.216 41.0445 192.283 41.2905 192.351 41.5393L192.351 41.54L192.351 41.541L192.351 41.542C192.521 42.1653 192.695 42.8055 192.993 43.351C193.576 44.4177 193.667 44.3481 194.508 43.7024L194.553 43.6684C195.216 43.1599 195.881 42.6442 196.549 42.1265L196.551 42.1253C198.536 40.5859 200.546 39.0277 202.602 37.5872C204.176 36.4842 205.811 35.4041 207.472 34.4379C207.654 34.332 207.869 34.2132 208.104 34.083C209.345 33.3968 211.152 32.3979 211.632 31.3633C211.942 30.6955 211.927 30.0504 211.914 29.4181C211.894 28.5045 211.874 27.618 212.832 26.7298C213.888 25.7508 215.609 25.2081 216.984 24.9702C218.42 24.7222 219.966 24.919 221.459 25.1086C221.988 25.176 222.51 25.2424 223.018 25.2878C224.982 25.4633 226.901 25.2722 228.827 24.8706C229.502 24.7296 230.32 24.4426 231.202 24.1327H231.202C234.172 23.0899 237.874 21.7898 239.346 24.9406C240 26.3356 239.799 27.8482 239.605 29.316C239.55 29.73 239.496 30.1406 239.461 30.5439C239.324 32.1415 238.854 33.8377 237.86 35.1519C236.913 36.4022 235.606 36.6659 234.201 36.9495H234.2C233.918 37.0064 233.632 37.064 233.344 37.1309C232.307 37.3707 231.257 37.5328 230.206 37.6951C229.195 37.8511 228.185 38.007 227.186 38.2321C226.183 38.4583 225.193 38.5684 224.163 38.6158C223.74 38.6355 223.23 38.5669 222.725 38.4988C222.136 38.4195 221.553 38.341 221.119 38.4041C220.676 38.4687 220.578 38.6588 220.469 38.8721C220.39 39.0257 220.305 39.1909 220.081 39.3306C219.967 39.4017 219.791 39.4089 219.63 39.4151C219.484 39.4211 219.35 39.4263 219.285 39.4782C218.946 39.7509 218.827 39.9917 218.603 40.4425L218.599 40.4492L218.597 40.4535L218.594 40.4602L218.559 40.5295L218.534 40.5807C217.849 41.9486 216.885 43.2887 215.962 44.5728C215.722 44.9066 215.485 45.2364 215.256 45.5619C215.186 45.6621 215.115 45.764 215.043 45.8674L214.983 45.9534C214.926 46.0344 214.87 46.1161 214.812 46.1987C213.986 47.3856 213.07 48.7038 212.141 49.7064C210.643 51.3235 209.174 53.0463 207.704 54.7691L207.703 54.7699C206.886 55.7272 206.07 56.6845 205.248 57.6235C204.078 58.961 202.675 60.3841 201.315 61.5338C201.171 61.656 200.976 61.7741 200.773 61.8966V61.8969C200.387 62.13 199.974 62.3793 199.833 62.7051C199.612 63.2183 199.987 64.1778 200.285 64.9383C200.398 65.2276 200.5 65.4883 200.554 65.6844C200.776 66.4986 200.906 67.3257 201.035 68.1503C201.175 69.0403 201.314 69.9275 201.568 70.7929C202.037 72.3872 202.207 74.1259 202.311 75.788C202.385 76.9591 202.485 78.1115 202.585 79.2567V79.2582V79.2585C202.805 81.7865 203.022 84.2802 202.939 86.8666C202.835 90.1082 202.717 93.2168 201.591 96.3997C200.566 99.2965 197.497 102.45 194.642 103.518C192.943 104.153 191.364 104.731 189.654 105.075L189.336 105.139C187.743 105.46 186.081 105.794 184.509 106.243C181.398 107.132 178.119 107.753 174.888 108.057C170.752 108.447 166.438 108.484 162.313 108.341C160.432 108.275 158.499 108.271 156.643 108.277C155.356 108.281 154.12 108.451 152.867 108.625C152.246 108.71 151.621 108.797 150.984 108.864C147.57 109.221 144.059 109.255 140.549 109.288C137.081 109.321 133.615 109.353 130.244 109.699C129.119 109.815 127.995 109.966 126.868 110.118H126.868H126.867C124.638 110.418 122.4 110.719 120.135 110.745C118.425 110.765 116.701 110.71 114.99 110.656C113.648 110.614 112.313 110.571 111 110.565C110.795 110.564 110.595 110.567 110.399 110.57C109.69 110.58 109.023 110.59 108.282 110.42C108.138 110.387 107.977 110.326 107.809 110.262L107.809 110.262C107.394 110.106 106.936 109.933 106.578 110.116C106.276 110.27 106.024 110.764 105.808 111.189C105.71 111.384 105.618 111.564 105.533 111.69C104.937 112.572 104.21 113.28 103.443 114.011C100.398 116.913 97.3808 117.891 93.3847 118.954C91.5501 119.443 90.6445 119.698 89.1041 120.815C87.8495 121.725 86.5798 122.379 85.1356 122.916C82.3029 123.968 78.9624 123.154 76.3002 122.241C75.8971 122.103 75.4878 121.969 75.0752 121.833C74.1676 121.536 73.2446 121.233 72.3392 120.872C71.4206 120.506 70.5843 120.016 69.7493 119.528C68.9538 119.062 68.1595 118.597 67.2966 118.24C67.4246 119.43 66.6574 120.122 65.9177 120.789C65.4848 121.179 65.0616 121.56 64.8324 122.028C64.6346 122.432 64.5936 122.95 64.5513 123.482C64.5081 124.029 64.4636 124.59 64.2469 125.059C63.8502 125.918 63.2371 126.73 62.2808 126.955C60.9778 127.261 58.6483 125.811 57.733 124.966C57.5307 124.779 57.3371 124.468 57.138 124.148C56.8371 123.666 56.5237 123.163 56.1489 123.037C55.5996 122.853 54.7407 123.344 54.0048 123.764C53.6534 123.965 53.3298 124.149 53.0818 124.237C49.4058 125.534 45.6807 126.147 41.7338 125.63C38.1056 125.154 34.7517 123.941 31.3603 122.715H31.36C31.0133 122.59 30.6664 122.464 30.3185 122.339C22.9737 119.702 16.5806 115.361 10.8293 110.134C10.7283 110.042 10.6129 109.953 10.4953 109.862C10.2404 109.667 9.97539 109.463 9.82444 109.202C9.71886 109.02 9.67616 108.701 9.63846 108.42C9.60735 108.188 9.57961 107.981 9.52267 107.897C9.21569 107.444 8.78356 107.428 8.25104 107.408H8.25076C8.13323 107.403 8.01081 107.398 7.88374 107.389C5.71235 107.225 3.98745 106.701 2.3044 105.245C-0.3446 102.955 -1.32452 97.6149 2.73629 96.1966C3.77429 95.8338 4.91675 95.7617 5.98979 95.9851C6.16858 96.0224 6.5438 96.2075 6.95529 96.4103H6.95536C7.56252 96.7098 8.24862 97.0481 8.49926 97.0083C8.95345 96.936 9.0212 96.4988 9.08383 96.0947C9.10913 95.9317 9.13356 95.7739 9.18229 95.6476C9.6119 94.5364 10.2164 93.5582 10.9452 92.6153C12.1564 91.0479 13.6324 89.4722 15.1471 88.1968C16.6236 86.9526 18.2343 86.3296 19.9651 85.66C20.1629 85.5835 20.3622 85.5065 20.5633 85.4277C21.8829 84.9107 24.4589 84.023 25.8566 84.4855C27.6771 85.0879 26.7859 87.0774 25.6389 87.7733C24.8218 88.2691 23.9229 88.619 23.0212 88.9702C22.1153 89.3228 21.2065 89.6765 20.3746 90.1805C19.0164 91.0036 17.7457 92.0522 16.4959 93.0831C16.06 93.4429 15.6265 93.8003 15.1928 94.1455C14.5661 94.6443 13.9783 95.1973 13.3911 95.7497C12.7141 96.3865 12.038 97.0227 11.304 97.5739C10.9406 97.8468 10.3472 98.3242 10.2342 98.4751C10.2218 98.4915 10.2182 98.5454 10.2133 98.617C10.2027 98.7723 10.1865 99.0114 10.0636 99.1407C10.0376 99.1677 10.0126 99.1941 9.98869 99.2194L9.92656 99.285C9.63894 99.5895 9.49906 99.7376 9.33121 99.7836C9.17228 99.8271 8.98829 99.7791 8.63009 99.6857C8.52156 99.6573 8.39702 99.6248 8.25235 99.5895C6.83699 99.2433 3.45824 98.4602 2.50397 100.215C1.66308 101.761 5.01504 103.157 6.23899 103.667L6.31459 103.699C7.72391 104.287 8.23488 104.877 9.06354 105.834C9.23118 106.027 9.41178 106.236 9.61547 106.463C10.4885 107.435 11.7677 108.187 12.9906 108.907C13.505 109.209 14.0093 109.506 14.4694 109.811C17.0049 111.49 19.7779 112.802 22.5326 114.104L22.5333 114.104L22.5346 114.105C23.4273 114.527 24.318 114.948 25.1981 115.381C28.6769 117.09 32.415 118.323 36.0415 119.52L36.1059 119.541C38.3074 120.267 40.9457 121.047 43.2563 121.27C45.5845 121.496 47.7678 121.116 50.052 120.672C50.9654 120.494 51.655 120.358 52.6103 120.021C52.7667 119.966 52.9598 119.928 53.1579 119.889C53.4983 119.823 53.854 119.753 54.0675 119.587C54.4368 119.3 54.4373 119.053 54.4383 118.689C54.4385 118.537 54.4388 118.364 54.4661 118.16C54.8011 115.643 56.3005 117.523 57.3401 118.827C57.5595 119.102 57.7586 119.352 57.9219 119.529C58.0707 119.69 58.2189 119.859 58.369 120.03L58.3695 120.031C58.9473 120.689 59.5507 121.377 60.3052 121.771C61.4962 122.392 61.703 122.1 62.0934 121.075C62.1963 120.805 62.29 120.529 62.3832 120.256C62.9508 118.59 63.4879 117.014 65.8601 117.256C65.4478 116.903 65.039 116.56 64.6346 116.221C62.9016 114.768 61.2494 113.382 59.7364 111.565C58.5099 110.092 57.3366 108.545 56.168 107.005L56.1678 107.005L56.1665 107.003C55.5815 106.232 54.9975 105.462 54.4084 104.704C53.9348 104.095 53.4812 103.409 53.0194 102.711C52.0701 101.277 51.0864 99.7903 49.8226 98.8019C49.2289 98.3374 47.4238 97.267 46.7367 97.2896C46.2172 97.3065 45.7271 97.7434 45.2266 98.1898C44.7363 98.6272 44.2357 99.0738 43.6875 99.1429C42.464 99.2975 41.9006 98.8703 41.5511 97.8769C41.3583 97.3284 41.5134 96.7359 41.6565 96.1887C41.7825 95.7075 41.8993 95.2614 41.7624 94.9107C41.7236 94.8116 41.5857 94.7032 41.4343 94.5842C41.2673 94.4527 41.0837 94.3085 40.9992 94.1497C40.7571 93.6949 40.7397 93.0967 40.812 92.5932C40.854 92.3017 40.9196 92.077 40.981 91.8673V91.867C41.0777 91.536 41.1637 91.2417 41.1291 90.779C41.1073 90.4882 41.0504 90.2233 40.9952 89.9655C40.8836 89.4449 40.7785 88.9538 40.9815 88.3389C41.1938 87.6952 41.7003 87.2454 42.1953 86.806C42.4426 86.5863 42.6869 86.3693 42.8907 86.132C43.6718 85.2209 43.4566 84.4992 43.1472 83.4621V83.4618C43.09 83.2707 43.0299 83.0689 42.972 82.8532C42.5567 81.3036 42.1056 79.7635 41.654 78.2231C41.2415 76.8147 40.8287 75.4061 40.4435 73.9902C39.6919 74.228 38.9471 74.4788 38.203 74.7291L38.2022 74.7293L38.2017 74.7296H38.2015L38.1998 74.7303C37.1082 75.0976 36.0179 75.4645 34.9097 75.7895C34.4614 75.9213 33.9865 76.0495 33.5004 76.1807C32.0412 76.5746 30.4805 76.9959 29.2321 77.6187C28.997 77.736 28.8325 77.8004 28.7194 77.8446C28.5929 77.8941 28.5308 77.9184 28.5059 77.9634C28.4816 78.0069 28.4925 78.07 28.5142 78.1943C28.5348 78.3148 28.5656 78.493 28.584 78.7671C28.6138 79.219 28.745 79.7043 28.8735 80.1785C28.9488 80.4569 29.0231 80.7315 29.0751 80.993C29.1385 81.3111 29.1931 81.7517 29.2543 82.245V82.2453C29.4441 83.7782 29.6974 85.8221 30.4713 86.294C30.7275 86.4504 31.0484 86.4481 31.3849 86.4456C31.8616 86.4424 32.3693 86.4387 32.7687 86.886C33.1067 87.2643 33.1857 87.7437 33.2645 88.2199C33.3192 88.5519 33.3738 88.8822 33.5155 89.1755C33.6326 89.4173 33.809 89.5776 33.9875 89.7394C34.1361 89.8741 34.2859 90.0103 34.4033 90.1957C34.8417 90.8883 34.8859 91.4915 34.9381 92.206C34.95 92.3705 34.9624 92.5408 34.9803 92.7195C34.9977 92.8959 35.0022 93.1753 35.0072 93.4939C35.0193 94.2623 35.0353 95.2592 35.2467 95.5895C35.5306 96.0328 36.0125 96.1061 36.507 96.1814C36.7078 96.212 36.9106 96.2428 37.1032 96.299C38.7833 96.7881 40.3309 97.6391 41.7577 98.6312ZM48.5027 71.6342C48.1915 72.6079 46.7635 73.7094 45.6178 73.1236C44.193 72.3954 44.0603 69.5232 44.451 68.2974C45.1128 66.22 45.6692 68.9449 45.786 69.7655C45.8012 69.8716 45.8104 69.97 45.8191 70.061C45.8549 70.442 45.8787 70.6932 46.2637 70.8374C46.4322 70.9005 46.6703 70.8744 46.9216 70.8468C47.2141 70.8148 47.525 70.7807 47.7661 70.8829C48.151 71.0464 48.2154 71.1543 48.4008 71.4654C48.4309 71.5159 48.4642 71.5718 48.5027 71.6342ZM40.2804 65.4528C40.2156 66.8197 42.3492 71.0317 42.9866 67.9791C42.9352 67.0682 42.4709 65.4608 41.8668 64.7475C41.0026 63.7283 40.3408 64.1918 40.2804 65.4528ZM45.84 63.8046C45.84 62.4827 46.6442 62.2212 47.6475 63.0771C48.6829 63.9602 49.0211 65.4352 49.1285 66.6537C49.2453 67.9749 48.9436 68.5363 47.6279 67.6873C46.476 66.944 45.8996 64.9644 45.84 63.8046ZM52.6814 73.4124C50.9045 73.2782 48.8392 76.6171 51.0228 76.3559C51.8464 76.3032 53.4941 75.7095 53.7349 74.7619C53.9253 74.0116 53.4051 73.4673 52.6814 73.4124ZM66.1817 59.9328C66.0818 58.5552 68.2027 57.8357 68.4773 59.296C68.736 60.6746 65.6834 62.0915 66.1817 59.9328ZM32.6228 80.8722C32.6355 79.1417 30.5213 76.3512 29.7657 79.1725C29.8736 80.0294 30.231 82.2937 31.4105 82.4873C32.3551 82.6424 32.6168 81.6319 32.6228 80.8722Z"
    fill="#2E3841" />
</svg>
